<?xml version="1.0" encoding="utf-8"?>
<!-- Generator: Adobe Illustrator 24.2.1, SVG Export Plug-In . SVG Version: 6.00 Build 0)  -->
<svg version="1.1" id="Layer_1" xmlns="http://www.w3.org/2000/svg" xmlns:xlink="http://www.w3.org/1999/xlink" x="0px" y="0px"
	 viewBox="0 0 30 30" style="enable-background:new 0 0 30 30;" xml:space="preserve">
<style type="text/css">
	.st0{fill:none;stroke:#161614;stroke-width:0.75;stroke-miterlimit:10;}
</style>
<path class="st0" d="M12.3,24.9c0-0.5,0-1.2,0-1.8c-3.8,0.8-4.6-1.6-4.6-1.6c-0.6-1.6-1.5-2-1.5-2c-1.2-0.9,0.1-0.8,0.1-0.8
	C7.6,18.7,8.3,20,8.3,20c1.2,2.1,3.2,1.5,4,1.1c0.1-0.9,0.5-1.5,0.9-1.8c-3-0.3-6.3-1.5-6.3-6.8c0-1.5,0.5-2.7,1.4-3.7
	C8.2,8.5,7.7,7.1,8.5,5.2c0,0,1.2-0.4,3.8,1.4c1.1-0.3,2.3-0.5,3.4-0.5c1.2,0,2.3,0.2,3.4,0.5c2.6-1.8,3.8-1.4,3.8-1.4
	c0.7,1.9,0.3,3.3,0.1,3.6c0.9,1,1.4,2.2,1.4,3.7c0,5.3-3.2,6.4-6.3,6.8c0.5,0.4,0.9,1.3,0.9,2.5c0,1.3,0,2.3,0,3"/>
</svg>
