<?xml version="1.0" encoding="utf-8"?>
<!-- Generator: Adobe Illustrator 24.2.1, SVG Export Plug-In . SVG Version: 6.00 Build 0)  -->
<svg version="1.1" id="Layer_1" xmlns="http://www.w3.org/2000/svg" xmlns:xlink="http://www.w3.org/1999/xlink" x="0px" y="0px"
	 viewBox="0 0 30 30" style="enable-background:new 0 0 30 30;" xml:space="preserve">
<style type="text/css">
	
		.st0{fill-rule:evenodd;clip-rule:evenodd;fill:none;stroke:#000000;stroke-width:0.75;stroke-linecap:round;stroke-linejoin:round;stroke-miterlimit:10;}
</style>
<g id="Page-1">
	<g id="Dribbble-Light-Preview" transform="translate(-180.000000, -7479.000000)">
		<g id="icons" transform="translate(56.000000, 160.000000)">
			<path id="linkedin-_x5B__x23_161_x5D_" class="st0" d="M149,7343.3h-4v-7c0-1.9-0.8-3-2.4-3c-1.7,0-2.6,1.1-2.6,3v7h-4v-13h4v1.5
				c0,0,1.3-2.2,4.1-2.2c2.8,0,4.9,1.7,4.9,5.3V7343.3z M131.4,7328.2c-1.4,0-2.4-1.1-2.4-2.5c0,0,0,0,0,0c0-1.4,1.1-2.5,2.4-2.5
				c1.4,0,2.4,1.1,2.4,2.5C133.9,7327.1,132.8,7328.2,131.4,7328.2C131.4,7328.2,131.4,7328.2,131.4,7328.2z M129,7343.3h5v-13h-5
				V7343.3z"/>
		</g>
	</g>
</g>
</svg>
